PathFileType	4	(X/Y/Z)	T:\Spectrum_Optical_Capture\Spectrum_Demo_10_05_01_TRUECOMBAT\07_Smooth_Trc\TC_Stairs_1.trc
DataRate	CameraRate	NumFrames	NumMarkers	Units	OrigDataRate	OrigDataStartFrame	OrigNumFrames
60.0	60.0	       4	46	mm	60.0	448	       716
Frame#	Time	HeadTop			ForeHead			LFrontHead			RFrontHead			TopSpine			Sternum			Scapula			LFShoulder			LShoulder			LBicep			LOuterElbow			LHand			LWristPinky			LWristThumb			RFShoulder			RShoulder			RBicep			ROuterElbow			RHand			RWristPinky			RWristThumb			MiddleBack			LowerBack			Root			Pelvis			LBackWaist			RBackWaist			LFrontWaist			RFrontWaist			Bellymarker			LThigh			LOuterKnee			LAnkle			LHeel			LOuterMeta			LToe			RThigh			ROuterKnee			RAnkle			RHeel			ROuterMeta			RToe			Floor1			Floor2			Floor3			Floor4			
		X1	Y1	Z1	X2	Y2	Z2	X3	Y3	Z3	X4	Y4	Z4	X5	Y5	Z5	X6	Y6	Z6	X7	Y7	Z7	X8	Y8	Z8	X9	Y9	Z9	X10	Y10	Z10	X11	Y11	Z11	X12	Y12	Z12	X13	Y13	Z13	X14	Y14	Z14	X15	Y15	Z15	X16	Y16	Z16	X17	Y17	Z17	X18	Y18	Z18	X19	Y19	Z19	X20	Y20	Z20	X21	Y21	Z21	X22	Y22	Z22	X23	Y23	Z23	X24	Y24	Z24	X25	Y25	Z25	X26	Y26	Z26	X27	Y27	Z27	X28	Y28	Z28	X29	Y29	Z29	X30	Y30	Z30	X31	Y31	Z31	X32	Y32	Z32	X33	Y33	Z33	X34	Y34	Z34	X35	Y35	Z35	X36	Y36	Z36	X37	Y37	Z37	X38	Y38	Z38	X39	Y39	Z39	X40	Y40	Z40	X41	Y41	Z41	X42	Y42	Z42	X43	Y43	Z43	X44	Y44	Z44	X45	Y45	Z45	X46	Y46	Z46	

448	7.450	331.81006	3325.07275	-934.25012	343.13873	3157.32935	-904.57178	238.19475	3210.62256	-869.62634	423.77399	3222.22827	-850.02148	302.74506	3206.16040	-578.18085	312.89359	2914.41650	-717.93909	426.93793	3096.07886	-482.35410	235.60583	3043.19971	-737.44720	105.71180	3154.90527	-690.51111	33.73750	2948.78784	-620.57385	52.58945	2878.32397	-506.88324	50.27975	2697.77173	-691.11304	62.43607	2626.71313	-733.10461	91.74348	2666.48779	-826.72876	392.36197	3040.88135	-725.82080	509.24689	3153.04175	-659.84338	574.20941	3016.76831	-538.56958	569.79620	2866.43481	-468.25177	576.18463	2759.85083	-691.14984	572.04608	2688.56079	-737.39209	565.66107	2741.41455	-821.10620	297.49704	3136.88696	-516.32477	301.32956	3015.78638	-455.40985	301.69690	2895.05591	-413.94672	156.25261	2920.15771	-467.22397	160.80194	2802.95557	-408.90842	444.53201	2782.88818	-413.09000	143.23669	2784.98608	-552.13672	464.44913	2766.01172	-557.36383	300.79147	2749.40161	-665.48151	105.81764	2530.09229	-534.60431	139.58830	2378.93237	-612.32928	206.01353	2009.69824	-531.78003	288.71295	1954.77173	-458.11880	189.83334	1937.10315	-581.88049	236.96181	1940.71716	-702.77637	505.78851	2581.47510	-628.30743	500.12216	2424.34424	-680.03699	452.16989	2072.76807	-619.50146	351.08029	2010.84375	-563.39996	480.70068	1959.02625	-643.76349	467.26315	1931.85034	-764.84900	4200.80908	32.96536	-4241.22070	-3735.30737	-12.50923	-4194.42920	-3781.72339	-15.75065	4946.38672	4162.53613	21.42769	4908.06348	
449	7.467	327.76401	3318.96411	-938.70148	339.17334	3151.08960	-908.80811	234.51274	3204.41602	-873.48529	420.26688	3216.23926	-854.64893	298.67673	3201.24707	-582.51392	311.18460	2908.37891	-720.58539	423.40771	3092.18774	-485.94556	233.55768	3036.58594	-741.33276	102.92657	3147.24146	-696.23193	33.10306	2940.40405	-627.01233	51.75658	2870.26953	-513.06726	50.02388	2687.84717	-694.67407	61.94279	2615.51587	-734.76862	92.81316	2651.77954	-829.02557	390.54471	3035.23828	-729.15356	505.92728	3148.83008	-663.29932	571.67456	3014.25830	-540.77411	568.53198	2865.13037	-469.01221	574.75543	2752.43774	-689.48303	570.56671	2679.55859	-734.06311	563.94598	2730.26025	-819.04138	293.72421	3132.41211	-520.24280	298.71310	3011.67603	-458.71741	300.72211	2891.23145	-416.53464	154.14677	2915.45190	-469.54877	159.84254	2799.04126	-410.60968	443.52271	2778.71118	-415.87418	142.27121	2780.70386	-554.29883	464.08209	2761.13599	-559.11462	299.10373	2744.37695	-667.37274	104.02005	2526.75708	-537.63770	137.37735	2376.00464	-617.31299	204.92648	2009.55005	-533.32666	287.95316	1955.58362	-458.85898	189.37648	1936.36572	-581.89813	236.35544	1939.16394	-703.13696	504.83261	2577.66675	-630.34436	498.60767	2420.48462	-682.92371	448.95724	2065.05957	-634.91248	347.53088	2002.94299	-583.08826	477.07889	1949.72632	-662.97162	463.96207	1925.89941	-784.78040	4200.76514	32.95170	-4241.21631	-3735.30591	-12.50377	-4194.42578	-3781.67090	-15.68897	4946.30518	4162.60547	21.24153	4908.15479	
450	7.483	323.86679	3312.80786	-943.18433	335.65445	3145.07202	-912.90564	230.95230	3198.17578	-877.35419	416.92157	3210.28979	-859.26270	294.74997	3196.39258	-586.87463	309.78046	2902.66333	-723.33423	419.93002	3088.34229	-489.47748	232.04427	3030.14331	-745.27179	100.32818	3139.51660	-702.09601	32.68291	2932.00513	-633.98328	50.93743	2862.09009	-519.76666	49.80718	2677.71436	-698.71466	61.32696	2604.41357	-737.12988	94.22207	2637.00806	-831.59821	388.97388	3029.69800	-732.56238	502.72836	3144.68359	-666.69867	569.19891	3012.14551	-542.82312	567.57013	2864.34741	-469.27164	573.62518	2745.46240	-687.20062	569.16998	2671.02124	-729.96606	562.50787	2719.42676	-816.23584	290.11215	3127.87842	-524.26440	296.15103	3007.64111	-461.95782	299.83572	2887.46143	-419.29050	152.22754	2910.67432	-472.00613	159.00786	2794.93335	-412.57513	442.64957	2774.55762	-418.92789	141.18704	2776.39160	-556.45758	463.71640	2756.07446	-561.16003	297.55136	2739.63477	-669.49976	102.51946	2523.45142	-541.24091	135.56264	2373.18604	-623.13049	203.89233	2009.57495	-535.28314	287.29190	1956.46362	-459.76810	189.04163	1935.85742	-581.97742	235.74463	1937.09863	-703.83112	503.71609	2572.65137	-632.21460	496.63507	2414.99365	-684.37225	445.92297	2055.45337	-649.62000	344.49536	1993.33484	-602.54626	473.62592	1938.29688	-681.72876	460.97397	1917.70691	-804.27008	4200.72363	32.93052	-4241.21436	-3735.30493	-12.49630	-4194.42139	-3781.61401	-15.59455	4946.25000	4162.71045	21.01414	4908.31348	
451	7.500	320.10727	3306.50635	-947.64941	332.49997	3139.20581	-916.87762	227.56256	3191.87500	-881.13086	413.71753	3204.33350	-863.83167	291.02841	3191.50952	-591.24164	308.65427	2897.18457	-726.23541	416.57690	3084.46729	-492.95761	230.95338	3023.78516	-749.24622	97.89891	3131.76611	-707.98505	32.36445	2923.62598	-641.22498	50.14295	2853.80981	-526.73560	49.60575	2667.41479	-703.13391	60.65949	2593.59619	-740.23370	95.82446	2622.86279	-834.55176	387.58521	3024.27588	-735.98267	499.73352	3140.52637	-670.04010	566.81091	3010.22046	-544.72620	566.84320	2863.88232	-469.05991	572.89526	2739.03149	-684.38513	568.03174	2663.09424	-725.24078	561.49054	2709.14502	-812.82269	286.68314	3123.16797	-528.34485	293.79932	3003.43018	-465.06400	299.06128	2883.51709	-422.18726	150.63364	2905.69995	-474.67029	158.33786	2790.56519	-414.81644	441.83090	2770.18970	-422.14151	140.12584	2771.95923	-558.68536	463.26889	2750.75195	-563.63208	296.23166	2735.00098	-671.94629	101.28786	2520.06665	-545.37610	134.10571	2370.49756	-629.69257	203.12350	2009.77869	-537.47766	286.83731	1957.43298	-460.99069	188.78568	1935.61743	-582.28815	235.07246	1934.61621	-704.89246	502.34778	2566.37524	-633.94086	494.23740	2407.83740	-684.79987	443.50949	2044.32568	-663.29675	342.63846	1982.61926	-620.56311	470.45200	1925.12122	-699.60529	457.65018	1907.35742	-822.73242	4200.70459	32.90693	-4241.21582	-3735.30566	-12.49140	-4194.41846	-3781.56836	-15.50469	4946.22949	4162.83203	20.84345	4908.45801	
